<?xml version="1.0" standalone="no"?>
<!DOCTYPE svg PUBLIC "-//W3C//DTD SVG 20010904//EN"
 "http://www.w3.org/TR/2001/REC-SVG-20010904/DTD/svg10.dtd">
<svg version="1.0" xmlns="http://www.w3.org/2000/svg"
 width="30.000000pt" height="30.000000pt" viewBox="0 0 30.000000 30.000000"
 preserveAspectRatio="xMidYMid meet">

<g transform="translate(0.000000,30.000000) scale(0.100000,-0.100000)"
fill="#000000" stroke="none">
<path d="M105 265 c-51 -22 -68 -50 -72 -113 -2 -34 1 -67 9 -82 13 -24 18
-25 106 -25 l93 -1 16 30 c20 39 13 128 -13 157 -19 21 -77 50 -98 48 -6 0
-25 -7 -41 -14z m66 -15 c19 -10 49 -59 49 -80 0 -6 -28 -10 -70 -10 -42 0
-70 4 -70 10 0 20 30 69 47 79 22 13 21 13 44 1z m69 -120 c11 -7 12 -15 4
-37 -9 -27 -10 -28 -94 -28 -84 0 -85 1 -94 28 -14 39 2 47 94 47 41 0 82 -4
90 -10z"/>
</g>
</svg>
